<svg version="1.1" id="Layer_1" xmlns="http://www.w3.org/2000/svg" x="0" y="0" viewBox="0 0 256 256" style="enable-background:new 0 0 256 256" xml:space="preserve"><style>.st1{fill:#291b4a}.st5{fill:#ebe7f2}.st6{fill:#f9b087}.st7{fill:#ff8639}.st8{fill:#65c1d6}.st9{fill:#149cb2}</style><circle cx="128" cy="128" r="119.4" style="fill:#382b73"/><path class="st1" d="M200.06 166.646a2.5 2.5 0 0 0 2.5-2.5V60.319a2.5 2.5 0 0 0-2.5-2.5H55.94a2.5 2.5 0 0 0-2.5 2.5v103.827a2.5 2.5 0 1 0 5 0V62.819h139.12v101.327a2.5 2.5 0 0 0 2.5 2.5z"/><path class="st1" d="M186.45 160.996a2.5 2.5 0 0 0 2.5-2.5V72.24a2.5 2.5 0 0 0-2.5-2.5H69.55a2.5 2.5 0 0 0-2.5 2.5v86.256a2.5 2.5 0 0 0 2.5 2.5h116.9zM72.05 74.74h111.9v81.256H72.05V74.74zM214.658 176.659a2.5 2.5 0 1 0 0-5h-43.056a2.5 2.5 0 1 0 0 5h43.056zM84.397 176.659a2.5 2.5 0 1 0 0-5H41.342a2.5 2.5 0 1 0 0 5h43.055z"/><path class="st1" d="M155.75 115.368c0-15.302-12.448-27.75-27.75-27.75s-27.75 12.448-27.75 27.75 12.448 27.75 27.75 27.75 27.75-12.448 27.75-27.75zm-9.192-13.133-10.638 5.89c-.057-.062-.111-.126-.169-.186l6.261-10.473a22.902 22.902 0 0 1 4.546 4.769zm-41.308 13.133c0-12.544 10.206-22.75 22.75-22.75 3.493 0 6.805.793 9.765 2.207l-6.221 10.406a10.679 10.679 0 0 0-3.544-.613c-5.928 0-10.75 4.822-10.75 10.75s4.822 10.75 10.75 10.75 10.75-4.822 10.75-10.75c0-.996-.147-1.956-.401-2.872l10.643-5.893a22.627 22.627 0 0 1 1.758 8.765c0 12.544-10.206 22.75-22.75 22.75s-22.75-10.206-22.75-22.75zm28.5 0c0 3.171-2.579 5.75-5.75 5.75s-5.75-2.579-5.75-5.75 2.579-5.75 5.75-5.75 5.75 2.579 5.75 5.75zM140.427 200.143c.488.488 1.128.732 1.768.732s1.279-.244 1.768-.732l8.651-8.652a2.498 2.498 0 0 0 0-3.535l-8.651-8.651a2.499 2.499 0 1 0-3.535 3.535l6.884 6.884-6.884 6.885a2.496 2.496 0 0 0-.001 3.534zM115.573 179.304a2.498 2.498 0 0 0-3.535 0l-8.651 8.651a2.498 2.498 0 0 0 0 3.535l8.651 8.652c.488.488 1.128.732 1.768.732s1.279-.244 1.768-.732a2.498 2.498 0 0 0 0-3.535l-6.884-6.885 6.884-6.884a2.498 2.498 0 0 0-.001-3.534zM123.426 200.875c.882 0 1.736-.467 2.191-1.294l9.531-17.304a2.5 2.5 0 1 0-4.379-2.413l-9.531 17.304a2.5 2.5 0 0 0 2.188 3.707z"/><path class="st1" d="M161.603 212.181a2.5 2.5 0 0 0 2.5-2.5v-39.915a2.5 2.5 0 0 0-2.5-2.5H94.397a2.5 2.5 0 0 0-2.5 2.5v39.915a2.5 2.5 0 0 0 2.5 2.5h67.206zm-64.706-39.915h62.205v34.915H96.897v-34.915z"/><g><path class="st8" d="M200.06 162.646a2.5 2.5 0 0 0 2.5-2.5V56.319a2.5 2.5 0 0 0-2.5-2.5H55.94a2.5 2.5 0 0 0-2.5 2.5v103.827a2.5 2.5 0 1 0 5 0V58.819h139.12v101.327a2.5 2.5 0 0 0 2.5 2.5z"/><path class="st8" d="M186.45 156.996a2.5 2.5 0 0 0 2.5-2.5V68.24a2.5 2.5 0 0 0-2.5-2.5H69.55a2.5 2.5 0 0 0-2.5 2.5v86.256a2.5 2.5 0 0 0 2.5 2.5h116.9zM72.05 70.74h111.9v81.256H72.05V70.74zM214.658 172.659a2.5 2.5 0 1 0 0-5h-43.056a2.5 2.5 0 1 0 0 5h43.056zM84.397 172.659a2.5 2.5 0 1 0 0-5H41.342a2.5 2.5 0 1 0 0 5h43.055z"/><path class="st9" d="M200.06 162.646a2.5 2.5 0 0 0 2.5-2.5V56.319a2.5 2.5 0 0 0-2.5-2.5H55.94a2.5 2.5 0 0 0-2.5 2.5v103.827a2.5 2.5 0 1 0 5 0V58.819h139.12v101.327a2.5 2.5 0 0 0 2.5 2.5zM58.44 57.319a1.5 1.5 0 0 0-1.5 1.5v101.327c0 .551-.449 1-1 1s-1-.449-1-1V56.319c0-.551.449-1 1-1h144.12c.551 0 1 .449 1 1v103.827c0 .551-.449 1-1 1s-1-.449-1-1V58.819a1.5 1.5 0 0 0-1.5-1.5H58.44z"/><path class="st9" d="M72.05 153.496h111.9a1.5 1.5 0 0 0 1.5-1.5V70.74a1.5 1.5 0 0 0-1.5-1.5H72.05a1.5 1.5 0 0 0-1.5 1.5v81.256a1.5 1.5 0 0 0 1.5 1.5zm0-82.756h111.9v81.256H72.05V70.74z"/><path class="st9" d="M186.45 156.996a2.5 2.5 0 0 0 2.5-2.5V68.24a2.5 2.5 0 0 0-2.5-2.5H69.55a2.5 2.5 0 0 0-2.5 2.5v86.256a2.5 2.5 0 0 0 2.5 2.5h116.9zm-117.9-2.5V68.24c0-.551.449-1 1-1h116.9c.551 0 1 .449 1 1v86.256c0 .551-.449 1-1 1H69.55c-.552 0-1-.449-1-1zM214.658 172.659a2.5 2.5 0 1 0 0-5h-43.056a2.5 2.5 0 1 0 0 5h43.056zm-44.055-2.5c0-.552.449-1 1-1h43.056a1.001 1.001 0 0 1 0 2h-43.056a1 1 0 0 1-1-1z"/><g><path class="st9" d="M84.397 172.659a2.5 2.5 0 1 0 0-5H41.342a2.5 2.5 0 1 0 0 5h43.055zm-44.055-2.5c0-.552.449-1 1-1h43.056a1.001 1.001 0 0 1 0 2H41.342a1 1 0 0 1-1-1z"/></g><g><path class="st6" d="M155.75 111.368c0-15.302-12.448-27.75-27.75-27.75s-27.75 12.448-27.75 27.75 12.448 27.75 27.75 27.75 27.75-12.448 27.75-27.75zm-50.5 0c0-12.544 10.206-22.75 22.75-22.75s22.75 10.206 22.75 22.75-10.206 22.75-22.75 22.75-22.75-10.206-22.75-22.75z"/><path class="st6" d="M155.75 111.368c0-15.302-12.448-27.75-27.75-27.75s-27.75 12.448-27.75 27.75 12.448 27.75 27.75 27.75 27.75-12.448 27.75-27.75zm-50.5 0c0-12.544 10.206-22.75 22.75-22.75s22.75 10.206 22.75 22.75-10.206 22.75-22.75 22.75-22.75-10.206-22.75-22.75z"/><path class="st6" d="M138.75 111.368c0-5.928-4.822-10.75-10.75-10.75s-10.75 4.822-10.75 10.75 4.822 10.75 10.75 10.75 10.75-4.822 10.75-10.75zm-16.5 0c0-3.171 2.579-5.75 5.75-5.75s5.75 2.579 5.75 5.75-2.579 5.75-5.75 5.75-5.75-2.579-5.75-5.75z"/><path class="st6" d="M138.75 111.368c0-5.928-4.822-10.75-10.75-10.75s-10.75 4.822-10.75 10.75 4.822 10.75 10.75 10.75 10.75-4.822 10.75-10.75zm-16.5 0c0-3.171 2.579-5.75 5.75-5.75s5.75 2.579 5.75 5.75-2.579 5.75-5.75 5.75-5.75-2.579-5.75-5.75z"/><path class="st6" d="M132.528 106.954c.851 0 1.68-.434 2.147-1.217l8.693-14.542a2.5 2.5 0 0 0-4.291-2.567l-8.693 14.542a2.5 2.5 0 0 0 2.144 3.784z"/><path class="st6" d="M135.233 109.864c.41 0 .825-.101 1.209-.313l14.833-8.213a2.5 2.5 0 0 0-2.421-4.375l-14.833 8.213a2.5 2.5 0 0 0 1.212 4.688z"/></g><g><path class="st6" d="M140.427 196.143c.488.488 1.128.732 1.768.732s1.279-.244 1.768-.732l8.651-8.652a2.498 2.498 0 0 0 0-3.535l-8.651-8.651a2.499 2.499 0 1 0-3.535 3.535l6.884 6.884-6.884 6.885a2.496 2.496 0 0 0-.001 3.534zM115.573 175.304a2.498 2.498 0 0 0-3.535 0l-8.651 8.651a2.498 2.498 0 0 0 0 3.535l8.651 8.652c.488.488 1.128.732 1.768.732s1.279-.244 1.768-.732a2.498 2.498 0 0 0 0-3.535l-6.884-6.885 6.884-6.884a2.498 2.498 0 0 0-.001-3.534zM123.426 196.875c.882 0 1.736-.467 2.191-1.294l9.531-17.304a2.5 2.5 0 1 0-4.379-2.413l-9.531 17.304a2.5 2.5 0 0 0 2.188 3.707z"/><g><path d="M161.603 208.181a2.5 2.5 0 0 0 2.5-2.5v-39.915a2.5 2.5 0 0 0-2.5-2.5H94.397a2.5 2.5 0 0 0-2.5 2.5v39.915a2.5 2.5 0 0 0 2.5 2.5h67.206zm-64.706-39.915h62.205v34.915H96.897v-34.915z" style="fill:#d3d3d3"/></g><g><path class="st5" d="M96.897 204.681h62.205a1.5 1.5 0 0 0 1.5-1.5v-34.915a1.5 1.5 0 0 0-1.5-1.5H96.897a1.5 1.5 0 0 0-1.5 1.5v34.915a1.5 1.5 0 0 0 1.5 1.5zm0-36.415h62.205v34.915H96.897v-34.915z"/><path class="st5" d="M161.603 208.181a2.5 2.5 0 0 0 2.5-2.5v-39.915a2.5 2.5 0 0 0-2.5-2.5H94.397a2.5 2.5 0 0 0-2.5 2.5v39.915a2.5 2.5 0 0 0 2.5 2.5h67.206zm-68.206-2.5v-39.915c0-.552.449-1 1-1h67.205c.551 0 1 .448 1 1v39.915c0 .552-.449 1-1 1H94.397c-.551 0-1-.449-1-1z"/></g></g><g><path class="st7" d="m134.669 104.977.072.079.073.081a1.497 1.497 0 0 0 1.834.3l10.638-5.89a1.5 1.5 0 0 0 .497-2.18 24.42 24.42 0 0 0-4.844-5.081 1.5 1.5 0 0 0-2.214.41l-6.261 10.473a1.5 1.5 0 0 0 .205 1.808zm7.343-11.511a22.902 22.902 0 0 1 4.546 4.769l-10.638 5.89c-.057-.062-.111-.126-.169-.186l6.261-10.473z"/><path class="st7" d="M155.75 111.368c0-15.302-12.448-27.75-27.75-27.75s-27.75 12.448-27.75 27.75 12.448 27.75 27.75 27.75 27.75-12.448 27.75-27.75zm-54 0c0-14.474 11.776-26.25 26.25-26.25s26.25 11.776 26.25 26.25-11.776 26.25-26.25 26.25-26.25-11.775-26.25-26.25z"/><path class="st7" d="M128 104.118c-3.998 0-7.25 3.252-7.25 7.25s3.252 7.25 7.25 7.25 7.25-3.252 7.25-7.25-3.252-7.25-7.25-7.25zm0 13c-3.171 0-5.75-2.579-5.75-5.75s2.579-5.75 5.75-5.75 5.75 2.579 5.75 5.75-2.579 5.75-5.75 5.75z"/><path class="st7" d="M152.25 111.368c0-3.232-.631-6.376-1.875-9.345a1.5 1.5 0 0 0-2.11-.732l-10.643 5.893a1.5 1.5 0 0 0-.719 1.714 9.23 9.23 0 0 1 .347 2.47c0 5.101-4.15 9.25-9.25 9.25s-9.25-4.149-9.25-9.25 4.15-9.25 9.25-9.25c1.023 0 2.049.178 3.048.528a1.5 1.5 0 0 0 1.784-.645l6.221-10.406a1.5 1.5 0 0 0-.642-2.124A23.987 23.987 0 0 0 128 87.118c-13.371 0-24.25 10.878-24.25 24.25s10.879 24.25 24.25 24.25 24.25-10.878 24.25-24.25zm-47 0c0-12.544 10.206-22.75 22.75-22.75 3.493 0 6.805.793 9.765 2.207l-6.221 10.406a10.679 10.679 0 0 0-3.544-.613c-5.928 0-10.75 4.822-10.75 10.75s4.822 10.75 10.75 10.75 10.75-4.822 10.75-10.75c0-.996-.147-1.956-.401-2.872l10.643-5.893a22.627 22.627 0 0 1 1.758 8.765c0 12.544-10.206 22.75-22.75 22.75s-22.75-10.206-22.75-22.75z"/><g><path class="st7" d="M140.427 196.143c.488.488 1.128.732 1.768.732s1.279-.244 1.768-.732l8.651-8.652a2.498 2.498 0 0 0 0-3.535l-8.651-8.651c-.488-.488-1.128-.732-1.768-.732s-1.279.244-1.768.732a2.498 2.498 0 0 0 0 3.535l6.884 6.884-6.884 6.885a2.497 2.497 0 0 0 0 3.534zm1.061-2.475 6.884-6.885a1.5 1.5 0 0 0 0-2.121l-6.884-6.884a1 1 0 0 1 1.414-1.414l8.651 8.651a1 1 0 0 1 0 1.414l-8.651 8.652c-.189.189-.44.293-.707.293s-.518-.104-.707-.294a.99.99 0 0 1-.293-.706.984.984 0 0 1 .293-.706z"/></g><g><path class="st7" d="M115.573 175.304c-.488-.488-1.128-.732-1.768-.732s-1.279.244-1.768.732l-8.651 8.651a2.498 2.498 0 0 0 0 3.535l8.651 8.652c.488.488 1.128.732 1.768.732s1.279-.244 1.768-.732a2.498 2.498 0 0 0 0-3.535l-6.884-6.885 6.884-6.884a2.497 2.497 0 0 0 0-3.534zm-1.06 2.474-6.884 6.884a1.5 1.5 0 0 0 0 2.121l6.884 6.885c.189.189.293.44.293.707a.993.993 0 0 1-.293.707c-.189.189-.44.293-.707.293s-.518-.104-.707-.293l-8.651-8.652a1 1 0 0 1 0-1.414l8.651-8.651c.189-.189.44-.293.707-.293s.518.104.707.293a1.001 1.001 0 0 1 0 1.413z"/></g><g><path class="st7" d="M123.426 196.875c.882 0 1.736-.467 2.191-1.294l9.531-17.304a2.5 2.5 0 0 0-4.378-2.413l-9.531 17.304a2.5 2.5 0 0 0 2.187 3.707zm-.874-2.982 9.532-17.304a1 1 0 1 1 1.751.965l-9.532 17.304a1 1 0 0 1-1.751-.965z"/></g></g></g></svg>